<?xml version="1.0" standalone="no"?><!DOCTYPE svg PUBLIC "-//W3C//DTD SVG 1.1//EN" "http://www.w3.org/Graphics/SVG/1.1/DTD/svg11.dtd"><svg t="1627132831145" class="icon" viewBox="0 0 1024 1024" version="1.1" xmlns="http://www.w3.org/2000/svg" p-id="9797" xmlns:xlink="http://www.w3.org/1999/xlink" width="200" height="200"><defs><style type="text/css">@font-face { font-family: feedback-iconfont; src: url("//at.alicdn.com/t/font_1031158_1uhr8ri0pk5.eot?#iefix") format("embedded-opentype"), url("//at.alicdn.com/t/font_1031158_1uhr8ri0pk5.woff2") format("woff2"), url("//at.alicdn.com/t/font_1031158_1uhr8ri0pk5.woff") format("woff"), url("//at.alicdn.com/t/font_1031158_1uhr8ri0pk5.ttf") format("truetype"), url("//at.alicdn.com/t/font_1031158_1uhr8ri0pk5.svg#iconfont") format("svg"); }
</style></defs><path d="M816 768V396.8c0-25.6-22.4-48-48-48h-48c-25.6 0-48 22.4-48 48V768h-48V256c0-25.6-22.4-48-48-48h-48c-25.6 0-48 22.4-48 48v512h-48v-278.4c0-25.6-22.4-48-48-48h-48c-25.6 0-48 22.4-48 48V768H256V208C256 182.4 233.6 160 208 160S160 182.4 160 208v604.8c0 25.6 22.4 48 48 48h604.8c25.6 0 48-22.4 48-48s-19.2-44.8-44.8-44.8z" p-id="9798"></path></svg>